<?xml version="1.0" encoding="utf-8"?>
<!-- Generator: Adobe Illustrator 23.0.6, SVG Export Plug-In . SVG Version: 6.00 Build 0)  -->
<svg version="1.1" id="Ebene_1" xmlns="http://www.w3.org/2000/svg" xmlns:xlink="http://www.w3.org/1999/xlink" x="0px" y="0px"
	 viewBox="0 0 771.9 280.4" style="enable-background:new 0 0 771.9 280.4;" xml:space="preserve">
<style type="text/css">
	.st0{fill:#FFFFFF;}
	.st1{fill:#96C34B;}
	.st2{fill:#65B235;}
	.st3{fill:#94B1DD;}
	.st4{fill:#5C7EBE;}
	.st5{font-family:'FiraSans-Light';}
	.st6{font-size:55px;}
	.st7{fill:#555454;}
	.st8{font-family:'FiraCode-Light';}
	.st9{font-size:37px;}
</style>
<rect id="Background" class="st0" width="771.9" height="280.4"/>
<path id="path8" class="st0" d="M137.9,14.3c-70.6,0-128,57.4-128,128c0,70.6,57.4,128,128,128c70.6,0,128-57.4,128-128
	C265.9,71.7,208.5,14.3,137.9,14.3"/>
<path id="path10" class="st1" d="M133.2,144.6c-1.2,2.5-2.4,5.3-3.7,8.3c-4.6,10.5-9.8,23.3-11.7,31.5c-0.7,2.9-1.1,6.5-1.1,10.6
	c0,1.6,0.1,3.3,0.2,5c6.6,2.4,13.7,3.7,21.1,3.8c6.7,0,13.2-1.1,19.3-3.1c-1.4-1.3-2.8-2.7-4-4.3C145,185.8,140.5,170.4,133.2,144.6
	"/>
<path id="path12" class="st1" d="M102.9,92.5c-15.7,11.1-26,29.3-26,50c0,20.4,10,38.4,25.3,49.5c3.8-15.6,13.2-30,27.3-58.7
	c-0.8-2.3-1.8-4.8-2.9-7.5c-3.9-9.8-9.6-21.2-14.6-26.4C109.4,96.8,106.3,94.5,102.9,92.5"/>
<path id="path14" class="st2" d="M191.3,212.7c-8.1-1-14.8-2.2-20.6-4.3c-9.8,4.9-20.9,7.6-32.6,7.6c-40.6,0-73.5-32.9-73.5-73.5
	c0-22,9.7-41.8,25.1-55.2c-4.1-1-8.4-1.6-12.8-1.6C55.3,85.9,32.5,97.8,23,130.1c-0.9,4.7-0.7,8.2-0.7,12.4
	c0,63.9,51.8,115.7,115.7,115.7c39.1,0,73.7-19.4,94.6-49.2c-11.3,2.8-22.2,4.2-31.5,4.2C197.6,213.2,194.3,213,191.3,212.7"/>
<path id="path16" class="st3" d="M169.5,190.2c0.7,0.4,2.3,0.9,4.6,1.6c15.2-11.1,25-29.1,25-49.3h0c-0.1-33.8-27.4-61.1-61.2-61.2
	c-6.7,0-13.2,1.1-19.2,3.1c12.4,14.2,18.4,34.4,24.2,56.5c0,0,0,0,0,0c0,0,1.8,6.1,5,14.3c3.1,8.1,7.6,18.2,12.5,25.5
	C163.6,185.7,167.2,189.2,169.5,190.2"/>
<path id="path18" class="st4" d="M138,26.8c-38.7,0-73,19.1-94,48.3c10.9-6.8,22.1-9.3,31.8-9.2c13.4,0,24,4.2,29.1,7.1
	c1.2,0.7,2.4,1.5,3.5,2.2c9.1-4,19-6.2,29.6-6.2c40.6,0,73.5,32.9,73.5,73.5h0c0,20.5-8.4,39-21.9,52.3c3.3,0.4,6.8,0.6,10.5,0.6
	c12.8,0,26.7-2.8,37-11.6c6.8-5.7,12.4-14.1,15.6-26.6c0.6-4.8,1-9.8,1-14.8C253.7,78.6,201.9,26.8,138,26.8"/>
<text transform="matrix(1 0 0 1 289.8567 128.8677)" class="st5 st6">Clojure Düsseldorf</text>
<text transform="matrix(1 0 0 1 351.2552 184.5071)"><tspan x="0" y="0" class="st7 st8 st9">(</tspan><tspan x="22.2" y="0" class="st2 st8 st9">welcome!</tspan><tspan x="199.8" y="0" class="st8 st9"> </tspan><tspan x="222" y="0" class="st4 st8 st9">:you</tspan><tspan x="310.8" y="0" class="st7 st8 st9">)</tspan></text>
</svg>
